<svg xmlns="http://www.w3.org/2000/svg" width="36" height="36">
    <defs>
        <linearGradient id="zan-snap-logo-linear-gradient" x1="0%" x2="100%" y1="50%" y2="50%">
            <stop offset="0%" stop-color="#F7797D"/>
            <stop offset="50%" stop-color="#C471ED"/>
            <stop offset="100%" stop-color="#12C2E9"/>
        </linearGradient>
    </defs>
    <g fill="none" fill-rule="nonzero">
        <path fill="url(#zan-snap-logo-linear-gradient)" d="M21.342 9c.076 0 .148.03.2.084l6.482 6.635 2.511-2.571a.28.28 0 0 1 .199-.083h4.98a.28.28 0 0 1 .262.161.27.27 0 0 1-.054.3l-14.065 14.39a.28.28 0 0 1-.2.084h-7.312a.27.27 0 0 1-.199-.084l-6.16-6.303-2.464 2.523a.28.28 0 0 1-.2.09H.341a.28.28 0 0 1-.255-.165.27.27 0 0 1 .054-.294l4.972-5.092-5.035-5.15a.27.27 0 0 1-.056-.294.28.28 0 0 1 .255-.166h4.98a.28.28 0 0 1 .2.083l2.675 2.738a.3.3 0 0 1 .062.047l2.49 2.548q.029.028.045.064l7.269 7.439 7.152-7.325-7.137-7.304-5.709 5.844-2.874-2.942 5.056-5.173a.27.27 0 0 1 .2-.084Zm10.752 11 3.824 3.551c.082.077.105.19.058.288a.3.3 0 0 1-.274.161h-5.36a.31.31 0 0 1-.214-.08L29 22.875z"/>
        <path d="M0 0h36v36H0z"/>
    </g>
</svg>
